<svg width="1947" height="704" viewBox="0 0 1947 704" fill="none" xmlns="http://www.w3.org/2000/svg">
<path fill-rule="evenodd" clip-rule="evenodd" d="M694.967 347.367C694.967 348.167 694.433 349.1 693.633 349.5C692.967 349.9 692.3 349.367 692.3 348.3C692.3 347.1 692.967 346.167 693.633 346.167C694.433 346.167 694.967 346.7 694.967 347.367Z" fill="white"/>
<path fill-rule="evenodd" clip-rule="evenodd" d="M1161.5 1.36664C1161.23 1.6333 1146.83 2.16662 1129.63 2.69995C1112.43 3.09995 1077.9 4.29994 1052.97 5.49994C1028.03 6.56661 989.9 8.03331 968.3 8.83331C946.7 9.63331 922.433 10.5666 914.3 10.8333C906.3 11.1 888.833 11.7666 875.633 12.1666C838.433 13.2333 815.9 14.0333 776.967 15.4999C757.233 16.1666 720.3 17.3666 694.967 18.1666C669.633 18.9666 630.033 20.1666 606.967 20.8333C583.9 21.6333 523.233 23.1 472.3 24.1666C418.433 25.3666 376.567 26.8333 372.3 27.6333C368.3 28.4333 362.567 30.2999 359.767 31.7666C351.233 36.1666 341.1 47.2333 337.5 56.1666L334.3 64.1666L334.7 120.167C334.833 154.167 335.767 185.367 336.967 199.5C340.033 236.967 340.033 233.5 336.567 233.9C334.967 234.167 333.633 233.767 333.633 232.967C333.633 232.167 331.9 231.5 329.633 231.5C327.5 231.5 325.633 232.033 325.633 232.833C325.633 233.5 324.167 234.167 322.433 234.167C320.567 234.167 318.7 233.5 318.3 232.833C317.233 231.1 311.367 231.1 310.3 232.833C309.9 233.5 308.033 234.167 306.3 234.167C304.567 234.167 302.7 233.5 302.3 232.833C301.9 232.033 300.033 231.5 298.3 231.5C296.567 231.5 294.7 232.033 294.3 232.833C293.9 233.5 292.033 234.167 290.3 234.167C288.567 234.167 286.7 233.5 286.3 232.833C285.9 232.033 284.033 231.5 282.3 231.5C280.567 231.5 278.7 232.033 278.3 232.833C276.967 234.833 271.367 234.433 270.433 232.167C270.033 231.1 268.567 230.167 267.233 230.167C265.767 230.167 263.9 231.1 262.967 232.167C260.833 234.833 257.767 234.7 254.7 231.9C252.3 229.767 251.9 229.767 247.767 232.033C243.5 234.3 243.1 234.3 238.833 232.167C235.5 230.3 233.9 230.167 232.033 231.367C228.967 233.233 224.967 233.233 221.633 231.233C219.5 229.9 218.433 229.9 216.3 231.233C212.967 233.233 210.3 233.233 207.1 231.233C205.1 230.033 203.767 230.033 200.967 231.233C194.7 234.167 193.233 233.233 189.1 224.033C186.967 219.233 183.5 213.9 181.367 212.167C177.011 212.167 166.913 212.3 161.367 212.833C153.633 212.833 150.3 214.3 147.9 218.967C146.3 221.9 145.1 222.433 137.5 222.967C119.767 224.033 37.7666 224.567 26.3 223.633C6.03335 221.9 1.6333 225.767 0.566637 246.167C-0.100029 259.1 1.76665 267.767 6.16664 272.167C9.49996 275.367 10.7002 275.5 102.3 275.767C150.3 275.9 146.833 275.5 149.1 279.9C150.167 281.767 152.033 283.9 153.367 284.567C156.433 286.167 183.1 285.5 184.167 283.767C189.233 278.753 190.9 273.056 191.1 270.833C192.433 267.367 193.633 266.167 195.767 266.167C197.5 266.167 199.233 266.7 199.633 267.5C200.033 268.3 201.9 268.833 203.633 268.833C205.367 268.833 207.233 268.167 207.633 267.5C208.7 265.633 214.033 265.767 216.033 267.767C217.233 268.967 218.833 268.833 222.967 267.5C227.5 266.033 228.833 266.033 231.767 267.5C234.433 268.967 235.633 269.1 237.633 267.767C240.967 265.767 244.967 265.767 248.3 267.767C250.433 269.1 251.5 269.1 253.633 267.767C256.833 265.767 261.233 265.633 262.3 267.5C262.7 268.167 264.567 268.833 266.3 268.833C268.033 268.833 269.9 268.167 270.3 267.5C271.367 265.767 277.233 265.767 278.3 267.5C278.7 268.167 280.567 268.833 282.3 268.833C284.033 268.833 285.9 268.167 286.3 267.5C286.7 266.7 288.567 266.167 290.3 266.167C292.033 266.167 293.9 266.7 294.3 267.5C294.7 268.167 296.567 268.833 298.3 268.833C300.033 268.833 301.9 268.167 302.3 267.5C302.7 266.7 304.567 266.167 306.3 266.167C308.033 266.167 309.9 266.7 310.3 267.5C310.7 268.167 312.567 268.833 314.3 268.833C316.033 268.833 317.9 268.167 318.3 267.5C318.7 266.7 320.567 266.167 322.433 266.167C324.167 266.167 325.633 266.7 325.633 267.5C325.633 269.367 331.767 269.1 334.967 267.233C337.1 265.9 338.167 265.9 340.3 267.233C341.767 268.033 345.5 268.833 348.7 268.833C353.233 268.833 355.233 269.633 357.767 272.3C359.5 274.167 362.167 276.167 363.5 276.7C365.633 277.5 364.567 278.3 358.567 280.833C354.433 282.567 350.967 284.833 350.967 285.767C350.967 289.9 360.3 323.633 362.833 328.567C365.767 334.3 373.1 340.7 380.033 343.5C383.5 344.833 392.167 345.1 420.7 344.433C440.7 344.033 459.633 344.033 462.967 344.567L468.967 345.5L468.567 350.967C468.167 355.633 468.7 356.967 471.767 359.367C474.967 361.9 476.967 362.167 492.567 362.167C507.1 362.167 510.567 361.767 514.967 359.5C517.9 358.033 520.833 356.833 521.5 356.833C522.167 356.833 523.233 358.033 523.633 359.5C524.3 361.633 525.633 362.167 529.767 362.167C532.7 362.167 536.3 361.5 537.767 360.833C540.433 359.367 541.5 361.233 538.967 362.833C538.3 363.233 537.633 366.567 537.633 370.033C537.633 376.3 537.9 376.567 545.5 382.567C563.9 397.1 571.367 407.367 573.633 421.5C574.967 429.5 573.233 437.9 568.3 447.5L565.233 453.367L569.367 456.833C576.033 462.3 577.633 468.033 577.633 485.367C577.633 497.367 577.1 501.5 575.367 504.833C573.1 508.833 573.1 508.967 575.633 511.233C578.033 513.233 578.3 515.1 578.3 532.167C578.3 550.167 578.167 550.967 575.1 554.033L571.9 557.233L576.033 560.967C580.567 564.967 581.233 566.433 578.7 565.767C577.633 565.633 576.433 571.9 574.7 585.233C572.167 605.9 570.833 609.9 563.367 619.1C559.367 623.9 558.967 625.1 559.9 629.1C560.967 633.233 561.633 633.633 569.233 635.367C577.367 637.233 577.5 637.367 579.5 643.633C580.833 647.367 581.9 656.833 582.167 667.633C582.567 677.233 583.367 685.767 584.033 686.433C586.833 689.233 600.433 691.5 614.433 691.5C628.833 691.5 650.433 688.567 652.833 686.167C653.5 685.5 654.567 676.433 655.1 665.9C655.767 655.367 656.967 646.567 657.633 646.433C658.433 646.167 658.967 644.833 658.967 643.5C658.967 640.033 661.5 638.567 669.367 637.5C680.967 635.9 680.7 636.967 679.9 600.967C679.233 568.7 673.9 492.033 670.3 462.167C669.233 452.967 667.1 439.767 665.5 432.833C664.033 425.9 662.833 417.1 662.7 413.5C662.567 405.767 666.433 397.1 671.233 393.9C672.967 392.833 679.233 387.1 685.367 381.367C693.767 373.1 696.3 369.9 696.3 367.1C696.3 363.767 694.167 362.567 689.367 363.367C687.233 363.633 688.433 362.033 692.967 358.033C696.567 354.833 697.633 352.833 697.633 349.367C697.633 345.1 697.9 344.833 702.433 344.833C704.967 344.833 711.367 345.767 716.7 346.967C724.7 348.833 729.367 348.967 744.3 348.033C754.167 347.367 769.367 346.833 778.033 346.833C792.3 346.833 794.033 347.1 795.633 349.5C799.5 355.1 800.433 355.5 808.167 355.5C814.7 355.5 816.3 355.1 817.9 352.567C819.9 349.633 820.033 349.633 823.5 351.9C827.767 354.7 830.033 360.033 828.833 363.9C828.3 365.5 825.1 370.433 821.5 375.1C814.7 384.033 812.7 390.967 814.033 400.833C815.9 415.1 829.5 432.967 843.5 439.633C855.1 445.1 861.9 445.5 885.633 441.633C896.967 439.767 917.1 436.7 930.167 434.833C943.367 432.833 955.767 430.433 957.767 429.5C963.5 426.433 970.833 416.833 972.967 409.633C976.033 399.5 975.5 393.233 970.967 384.833C966.7 376.833 966.167 374.833 968.567 376.3C969.5 376.833 969.633 376.7 969.1 375.633C968.567 374.833 967.5 374.433 966.833 374.833C965.233 375.9 963.1 370.167 964.033 367.5C965.233 364.3 967.233 363.5 974.433 363.5C983.9 363.5 989.633 360.433 989.633 355.367C989.633 351.767 989.9 351.5 994.967 351.5H1000.3V363.5C1000.3 375.367 999.9 376.3 995.633 374.7C993.9 373.9 993.767 373.5 995.233 372.567C996.433 371.633 996.3 371.5 994.3 371.767C991.9 372.167 991.5 373.5 990.967 386.433C990.3 398.967 989.633 401.5 985.767 409.233C983.367 414.033 981.767 418.567 982.167 419.367C982.7 420.167 985.367 421.767 988.033 423.1C995.233 426.567 1003.23 435.1 1007.77 444.3C1011.23 451.367 1011.63 453.367 1011.5 464.833C1011.37 471.767 1011.1 478.7 1010.83 480.3C1010.43 482.3 1011.9 484.3 1016.3 487.633C1022.7 492.567 1030.03 503.633 1032.57 512.167C1034.57 518.567 1034.43 532.033 1032.43 537.233C1031.1 540.7 1031.5 541.367 1039.5 549.233C1053.1 562.7 1058.03 575.633 1058.03 598.567C1057.9 608.967 1058.3 610.433 1060.7 611.767C1065.1 614.167 1084.43 612.167 1108.43 606.967C1150.3 597.9 1162.7 592.7 1170.57 580.7C1174.17 575.1 1174.3 574.567 1174.3 556.7C1174.17 545.5 1173.63 537.767 1172.7 536.7C1171.9 535.633 1170.83 529.1 1170.3 522.167C1168.17 491.9 1150.43 442.967 1131.37 414.567C1127.23 408.433 1118.03 396.833 1110.83 388.833C1095.9 372.3 1093.63 367.367 1096.3 357.1C1098.97 346.433 1100.97 344.033 1112.83 337.5C1122.43 332.3 1123.9 330.967 1123.23 328.567C1122.83 326.567 1123.1 326.033 1124.43 326.433C1125.5 326.833 1126.97 326.167 1127.9 324.967C1129.23 323.1 1132.97 322.833 1153.23 322.967C1174.57 322.967 1178.3 323.367 1190.3 326.567C1215.5 333.233 1242.7 349.367 1259.77 367.767C1274.3 383.5 1286.83 405.767 1292.83 426.567C1294.97 433.767 1294.97 434.967 1292.97 441.5C1291.9 445.5 1289.37 450.433 1287.5 452.433C1285.63 454.433 1284.57 455.367 1285.1 454.3C1285.77 452.833 1285.5 452.567 1283.77 453.233C1282.43 453.767 1280.57 454.167 1279.63 454.167C1277.1 454.167 1274.7 463.233 1276.43 466.3C1277.5 468.433 1292.83 474.167 1297.37 474.167C1298.17 474.167 1303.77 467.9 1309.77 460.167C1320.43 446.567 1320.97 446.167 1326.03 446.167H1331.23L1330.43 495.767C1329.5 546.167 1327.1 645.633 1326.43 657.1L1326.03 663.5L1336.83 666.833C1342.83 668.567 1359.9 674.033 1374.97 678.7C1390.03 683.5 1404.17 687.767 1406.3 688.3C1408.57 688.7 1416.03 690.833 1422.97 692.967C1447.77 700.3 1462.17 703.5 1471.77 703.5C1477.77 703.5 1481.77 702.833 1482.57 701.767C1483.37 700.833 1484.3 677.367 1484.83 643.5L1485 633.722L1485 633.527C1485.59 598.877 1486.67 535.915 1487.63 485.5C1488.7 429.767 1489.63 382.7 1489.63 380.967C1489.63 377.767 1489.77 377.767 1499.37 378.567C1504.57 379.1 1510.97 380.167 1513.37 380.967C1515.77 381.767 1520.57 382.167 1524.03 381.767C1530.43 381.1 1551.5 386.7 1587.77 398.833C1595.37 401.367 1605.9 404.433 1611.23 405.633C1616.57 406.833 1621.5 408.167 1622.03 408.7C1622.57 409.233 1622.17 413.367 1621.1 417.767C1618.03 431.233 1622.03 435.5 1641.63 439.367C1648.57 440.833 1654.43 442.7 1654.83 443.633C1656.17 447.633 1662.03 451.1 1671.5 453.5C1681.63 455.9 1681.77 455.9 1684.17 453.367C1685.5 452.033 1687.9 446.833 1689.5 442.033C1694.17 427.9 1693.37 428.3 1709.63 432.967C1724.3 437.1 1743.5 442.3 1756.97 445.767C1761.37 446.833 1768.17 449.367 1772.17 451.233C1776.03 452.967 1781.77 454.7 1784.83 454.833C1787.77 454.967 1793.77 455.9 1798.03 456.833C1804.83 458.433 1806.57 459.5 1811.23 465.1L1816.7 471.5H1835.9C1847.77 471.5 1854.97 470.967 1854.97 470.167C1854.97 468.033 1861.1 468.567 1862.97 470.833C1864.3 472.433 1868.57 472.833 1885.63 472.833C1906.43 472.833 1906.83 472.833 1910.83 469.367C1913.1 467.5 1914.97 465.1 1914.97 464.033C1914.97 463.1 1916.83 460.433 1919.1 458.033C1921.77 455.233 1922.83 453.233 1922.17 451.633C1918.83 443.9 1921.1 432.167 1926.43 430.167C1930.03 428.7 1930.7 424.7 1927.63 422.167C1926.3 421.1 1925.77 419.1 1926.17 416.967C1926.43 415.1 1927.5 408.567 1928.43 402.567C1929.77 394.167 1930.7 391.367 1932.43 390.833C1936.3 389.5 1937.1 384.7 1933.77 382.033C1931.23 380.033 1931.1 378.833 1931.9 371.5C1932.57 364.567 1933.23 362.967 1935.9 361.767C1939.5 360.167 1940.17 354.567 1936.83 352.3C1933.5 349.767 1935.63 334.7 1939.77 331.9C1943.37 329.5 1944.03 324.167 1940.83 322.967C1939.1 322.3 1938.83 320.833 1939.63 313.9C1940.17 309.233 1941.5 304.167 1942.57 302.567C1944.03 300.433 1944.3 297.767 1943.63 293.233C1943.23 289.633 1943.63 281.1 1944.83 273.633C1946.3 263.633 1946.57 257.9 1945.5 248.967C1943.5 230.833 1935.1 176.567 1933.63 172.833C1932.97 170.967 1931.5 164.433 1930.17 158.167C1927.77 145.5 1925.5 140.3 1921.63 138.167C1918.03 136.3 1888.3 135.5 1788.43 134.967L1702.7 134.433L1697.5 141.5C1697.63 143.1 1690.43 152.7 1676.3 170.167C1659.37 191.1 1664.83 188.833 1632.03 188.7C1616.43 188.567 1598.3 188.167 1591.63 187.633C1581.1 186.967 1579.63 186.567 1579.23 184.167C1578.97 182.7 1578.3 180.3 1577.77 178.833C1577.1 177.367 1576.17 174.433 1575.5 172.3C1574.83 169.9 1572.43 167.233 1569.77 165.633C1565.37 163.1 1561.77 162.967 1506.43 162.033C1474.03 161.5 1410.57 160.3 1365.37 159.367C1320.17 158.567 1280.97 158.3 1278.3 158.7C1272.03 159.9 1268.3 163.767 1268.3 169.1C1268.3 174.033 1266.17 172.7 1265.37 167.5C1264.97 164.3 1264.57 164.167 1253.63 163.5L1242.3 162.833L1242.17 138.033C1242.17 124.433 1241.63 112.3 1241.23 110.833C1240.7 109.5 1238.43 93.3666 1236.3 74.9666C1233.77 52.1666 1231.63 39.1 1229.63 33.9C1221.37 11.7666 1203.63 0.833313 1175.77 0.833313C1168.3 0.833313 1161.77 1.09997 1161.5 1.36664ZM904.033 68.8333C799.633 68.8333 710.433 68.5666 705.633 68.1666C700.833 67.9 644.166 67.3666 579.633 66.9666L462.3 66.1666L456.167 69.4999C445.367 75.0999 436.567 87.1 432.967 100.833C431.5 106.433 431.633 164.567 433.1 166.033C434.567 167.633 453.367 166.167 456.967 164.3C459.633 162.833 464.567 162.167 471.367 162.167C481.233 162.167 482.967 162.7 502.7 170.967L523.633 179.767L545.767 178.833L568.033 177.9L569.233 173.633C570.432 169.504 570.566 169.5 579.607 169.234L579.633 169.233C587.367 168.967 588.967 169.233 590.567 171.5C591.633 172.967 593.367 174.167 594.433 174.167C595.9 174.167 596.3 171.9 596.3 163.367C596.3 145.633 600.567 146.967 549.767 148.033C525.9 148.433 491.9 148.967 474.3 149.1L442.3 149.367V142.033V134.833L501.633 134.033C534.3 133.5 571.633 133.1 584.7 132.967C607.367 132.833 608.567 132.7 609.233 130.167C610.033 127.367 614.967 125.367 618.3 126.567C619.367 127.1 620.567 126.833 620.833 126.3C622.167 124.167 628.567 126.567 629.9 129.633C631.233 132.3 632.3 132.833 637.633 132.833H643.9L644.7 143.767C646.033 160.033 645.767 171.5 644.3 171.5C643.633 171.5 642.967 172.3 642.967 173.367C642.967 174.433 644.033 175.1 645.233 174.967C646.567 174.967 647.633 175.767 647.633 176.833C647.633 178.567 651.367 178.833 671.367 179.233C686.567 179.367 694.967 179.1 694.967 178.167C694.967 177.5 694.433 176.833 693.767 176.833C693.1 176.833 691.233 174.7 689.633 172.167C686.833 167.633 686.833 167.233 688.967 164.833C692.833 160.567 697.5 159.633 729.367 156.833C746.433 155.367 761.633 153.5 762.967 152.833C764.433 152.033 766.967 149.5 768.833 147.1C783.767 127.5 779.367 100.833 758.967 87.6333L751.633 82.8333L756.567 82.4333C766.567 81.6333 784.3 94.3 791.233 107.1C795.1 114.3 796.3 119.367 800.833 148.7C804.567 172.167 804.167 175.1 797.367 175.767C794.7 176.033 792.967 176.967 792.967 178.033C792.967 180.433 794.434 180.567 953.633 181.5C1028.83 181.9 1094.03 182.567 1098.7 182.833C1106.43 183.367 1107.5 183.1 1110.57 180.033C1113.77 176.833 1113.9 175.9 1113.37 167.367C1112.7 159.233 1112.97 157.9 1115.1 156.7C1116.97 155.767 1118.17 156.033 1120.03 157.9C1121.5 159.367 1124.03 160.3 1125.63 160.3C1128.3 160.167 1128.97 161.1 1130.03 165.9C1131.37 172.967 1132.97 172.167 1134.17 163.9C1139.1 130.833 1139.9 112.567 1136.97 103.367C1131.37 86.4333 1117.5 73.7667 1100.7 70.3C1095.9 69.3667 1034.43 68.8333 904.033 68.8333ZM65.6333 239.367C65.6333 238.7 64.1666 237.5 62.3 236.833C53.6333 233.5 33.6333 234.967 33.6333 238.833C33.6333 240.7 43.2333 243.5 49.6333 243.5C55.2333 243.5 65.6333 240.833 65.6333 239.367ZM163.367 241.633C160.567 242.167 157.767 242.433 156.967 242.3C156.379 242.182 153.821 241.961 151.122 241.728L150.736 241.694L150.033 241.633C144.433 241.1 144.3 241.233 144.3 244.967C144.3 247.1 145.1 248.833 146.033 248.967C146.833 248.967 150.167 249.233 153.367 249.633C157.233 250.167 158.967 249.767 158.967 248.567C158.967 247.367 159.367 247.367 160.433 248.433C162.3 250.3 165.9 249.1 164.833 246.967C164.433 246.167 165.1 246.7 166.167 248.033C168.167 250.567 168.3 250.433 168.3 245.633V240.7L163.367 241.633ZM125.233 248.833C127.633 248.833 128.3 248.033 128.3 245.5C128.3 243.633 128.167 242.3 128.033 242.433C127.926 242.433 127.514 242.499 126.912 242.594C126.022 242.735 124.718 242.941 123.367 243.1C119.5 243.633 118.967 244.167 118.967 247.9C118.967 251.1 119.367 251.633 120.567 250.433C121.5 249.5 123.5 248.833 125.233 248.833ZM57.1 263.5C66.9666 261.633 68.7 260.167 63.3666 258.033C54.7 254.7 35.3666 256.3 34.0333 260.433C32.9666 263.367 47.6333 265.233 57.1 263.5ZM693.633 349.5C694.433 349.1 694.967 348.167 694.967 347.367C694.967 346.7 694.433 346.167 693.633 346.167C692.967 346.167 692.3 347.1 692.3 348.3C692.3 349.367 692.967 349.9 693.633 349.5ZM873.633 378.033C871.5 367.1 864.967 357.1 857.633 353.233C852.967 350.967 849.5 350.3 842.3 350.3C830.167 350.567 827.9 351.1 828.967 353.9C832.167 362.167 831.367 364.7 822.967 376.167C818.033 382.7 818.033 382.967 818.967 390.967C821.233 409.1 834.567 426.567 851.5 433.367C862.833 437.767 868.2 439.367 893 434.967C896.067 434.433 897 434.5 898.433 434.967C898.664 435.299 898.789 435.587 898.893 435.827C899.268 436.694 899.368 436.927 903.233 436.3C905.381 435.942 911.794 434.983 919.528 433.827L919.549 433.824L919.564 433.822L919.581 433.819C923.355 433.255 927.442 432.644 931.5 432.033C955.9 428.433 959.367 427.233 964.967 420.567C970.3 414.167 972.3 408.7 972.3 399.633C972.3 392.833 971.5 390.167 966.967 381.9C964.033 376.567 961.633 370.967 961.633 369.367C961.633 365.767 965.633 362.167 970.167 361.633C975.233 361.1 975.5 360.167 971.633 357.633C969.633 356.3 968.433 354.567 968.7 353.5C969.233 352.167 965.367 351.633 949.9 351.233C939.1 350.967 929.633 350.833 928.833 351.1C927.767 351.5 927.1 357.633 926.7 368.567C926.3 383.367 925.767 386.433 922.7 393.1C918.967 401.1 907.9 414.167 904.833 414.167C902.167 414.167 902.433 413.633 908.167 405.1C916.833 392.433 918.033 383.9 913.767 368.167C912.3 362.967 910.7 357.233 910.3 355.1L909.633 351.5H897.233H884.967L888.567 354.567C891.633 356.967 892.433 359.1 893.633 367.9C894.3 373.633 894.967 380.433 894.967 382.833C894.967 387.1 894.567 387.5 889.5 388.833C882.833 390.7 877.633 390.167 876.167 387.5C875.5 386.433 874.433 382.167 873.633 378.033Z" fill="white"/>
</svg>
